<svg xmlns="http://www.w3.org/2000/svg" xmlns:xlink="http://www.w3.org/1999/xlink" id="Layer_1" x="0" y="0" version="1.1" viewBox="0 0 30 30" xml:space="preserve" style="enable-background:new 0 0 30 30"><style type="text/css">.st0{fill:#ffdc0d}.st1{fill:#000222}</style><g><g><path d="M29,15c0,7.7-6.3,14-14,14c-0.1,0-0.1,0-0.2,0C7.2,28.9,1,22.7,1,15C1,7.3,7.2,1.1,14.8,1c0.1,0,0.1,0,0.2,0 C22.7,1,29,7.3,29,15z" class="st0"/></g><path d="M29,15c0,7.7-6.3,14-14,14c-0.1,0-0.1,0-0.2,0c-2.6-4-4.2-8.8-4.2-14s1.5-10,4.2-14c0.1,0,0.1,0,0.2,0 C22.7,1,29,7.3,29,15z" class="st1"/></g></svg>