<svg xmlns="http://www.w3.org/2000/svg" viewBox="0 0 32.6 31.8"><style type="text/css">  
	.st0{fill-rule:evenodd;clip-rule:evenodd;}
	.st1{}
	.st2{fill:none;stroke:#1981BC;stroke-linecap:round;stroke-miterlimit:10;}
	.st3{fill:none;stroke:#1981BC;stroke-linecap:round;stroke-miterlimit:10;stroke-dasharray:0.9999,1.9999;}
	.st4{fill:#0072BC;}
	.st5{fill-rule:evenodd;clip-rule:evenodd;fill:#FFFFFF;}
	.st6{fill:#FFFFFF;}
</style><path class="st0" d="M16.3 0C7.3 0 0 7.3 0 16.3c0 7.2 4.7 13.3 11.1 15.5 0.8 0.1 1.1-0.4 1.1-0.8 0-0.4 0-1.4 0-2.8 -4.5 1-5.5-2.2-5.5-2.2 -0.7-1.9-1.8-2.4-1.8-2.4 -1.5-1 0.1-1 0.1-1 1.6 0.1 2.5 1.7 2.5 1.7 1.5 2.5 3.8 1.8 4.7 1.4 0.1-1.1 0.6-1.8 1-2.2 -3.6-0.4-7.4-1.8-7.4-8.1 0-1.8 0.6-3.2 1.7-4.4C7.4 10.7 6.8 9 7.7 6.8c0 0 1.4-0.4 4.5 1.7 1.3-0.4 2.7-0.5 4.1-0.5 1.4 0 2.8 0.2 4.1 0.5 3.1-2.1 4.5-1.7 4.5-1.7 0.9 2.2 0.3 3.9 0.2 4.3 1 1.1 1.7 2.6 1.7 4.4 0 6.3-3.8 7.6-7.4 8 0.6 0.5 1.1 1.5 1.1 3 0 2.2 0 3.9 0 4.5 0 0.4 0.3 0.9 1.1 0.8 6.5-2.2 11.1-8.3 11.1-15.5C32.6 7.3 25.3 0 16.3 0z"/></svg>