<?xml version="1.0" encoding="utf-8"?>
<!-- Generator: Adobe Illustrator 24.1.2, SVG Export Plug-In . SVG Version: 6.00 Build 0)  -->
<svg version="1.1" id="Layer_1" xmlns="http://www.w3.org/2000/svg" xmlns:xlink="http://www.w3.org/1999/xlink" x="0px" y="0px"
	 viewBox="0 0 30 30" style="enable-background:new 0 0 30 30;" xml:space="preserve">
<style type="text/css">
	.st0{fill:#FFDC0D;}
	.st1{fill:#000222;}
</style>
<g>
	<circle class="st0" cx="15" cy="15" r="9.6"/>
	<polygon class="st0" points="25.8,4.3 21.7,6.8 23.3,8.3 	"/>
	<polygon class="st0" points="17.4,0 15.6,4.4 17.8,4.7 	"/>
	<polygon class="st0" points="11.2,5.1 8.1,1.5 9.2,6.1 	"/>
	<polygon class="st0" points="6.1,9.2 1.5,8.1 5.1,11.2 	"/>
	<polygon class="st0" points="4.4,15.6 0,17.4 4.7,17.7 	"/>
	<polygon class="st0" points="4.2,25.7 8.3,23.2 6.7,21.7 	"/>
	<polygon class="st0" points="12.6,30 14.4,25.6 12.2,25.3 	"/>
	<polygon class="st0" points="18.8,24.9 21.9,28.5 20.8,23.9 	"/>
	<polygon class="st0" points="23.9,20.8 28.5,21.9 24.9,18.8 	"/>
	<polygon class="st0" points="25.6,14.4 30,12.6 25.3,12.3 	"/>
</g>
</svg>
