<svg xmlns="http://www.w3.org/2000/svg" xmlns:xlink="http://www.w3.org/1999/xlink" enable-background="new 0 0 1067 1067" version="1.1" viewBox="0 0 1067 1067" xml:space="preserve"><style type="text/css">.st0{clip-path:url(#a)}.st1{fill:#e63d34}.st2{fill:#fc0}</style><defs><circle id="b" cx="533.5" cy="533.5" r="533.5"/></defs><clipPath id="a"><use xlink:href="#b"/></clipPath><g class="st0"><rect width="1485" height="1080" x="-209" y="-6.5" class="st1"/><path d="m866.6 549.6c-14.3-6-29.7-8.9-45.2-8.6h-130.4c-4.1 0-7.5-3.4-7.5-7.5s3.4-7.5 7.5-7.5h130.4c62.2 1.1 113.5-48.3 114.7-110.5 1.1-62.2-48.3-113.5-110.5-114.7-31.3-0.6-61.4 11.9-83.2 34.5l-92.2 92.2c-2.9 2.9-7.7 2.9-10.6 0s-2.9-7.7 0-10.6l92.2-92.2c44.8-43.2 46.1-114.5 2.9-159.2s-114.5-46.1-159.2-2.9c-22.5 21.7-35 51.9-34.5 83.2v130.2c0 4.1-3.4 7.5-7.5 7.5s-7.5-3.4-7.5-7.5v-130.4c1.1-62.2-48.3-113.5-110.5-114.7-62.2-1.1-113.5 48.3-114.7 110.5-0.6 31.3 11.9 61.4 34.5 83.2l92.2 92.2c2.9 2.9 2.9 7.7 0 10.6s-7.7 2.9-10.6 0l-92.2-92.2c-43.2-44.8-114.5-46.1-159.2-2.9s-46.1 114.5-2.9 159.2c21.7 22.5 51.9 35 83.2 34.5h130.2c4.1 0 7.5 3.4 7.5 7.5s-3.4 7.5-7.5 7.5h-130.4c-62.2-1.2-113.5 48.3-114.7 110.5s48.3 113.5 110.5 114.7c31.3 0.6 61.4-11.9 83.2-34.5l92.2-92.2c2.9-2.9 7.7-2.9 10.6 0s2.9 7.7 0 10.6l-92.2 92.2c-44.8 43.2-46.1 114.5-2.9 159.2 43.2 44.8 114.5 46.1 159.2 2.9 22.5-21.7 35-51.9 34.5-83.2v-130.2c0-4.1 3.4-7.5 7.5-7.5s7.5 3.4 7.5 7.5v130.4c-1.1 62.2 48.3 113.5 110.5 114.7 62.2 1.1 113.5-48.3 114.7-110.5 0.6-31.3-11.9-61.4-34.5-83.2l-92.2-92.2c-2.9-2.9-2.9-7.7 0-10.6s7.7-2.9 10.6 0l92.2 92.2c43.1 44.8 114.4 46.1 159.3 3s46.1-114.4 3-159.3c-10.7-11.2-23.7-20-38-25.9zm-333.1 123.9c-77.3 0-140-62.7-140-140s62.7-140 140-140 140 62.7 140 140-62.7 140-140 140zm130-140c0 71.8-58.2 130-130 130s-130-58.2-130-130 58.2-130 130-130 130 58.2 130 130zm-97.5-377.5-25 25-7.5-40-7.5 40-25-25 32.5-90 32.5 90zm-276.5 87.6v35.4l-33.5-23 23 33.6h-35.4l-40.7-86.6 86.6 40.6zm-133.5 257.4 25 25-40 7.5 40 7.5-25 25-90-32.5 90-32.5zm87.6 276.5h35.4l-23 33.5 33.6-23v35.4l-86.6 40.7 40.6-86.6zm257.4 133.5 25-25 7.5 40 7.5-40 25 25-32.5 90-32.5-90zm276.5-87.6v-35.4l33.6 23-23-33.6h35.4l40.7 86.6-86.7-40.6zm133.5-257.4-25-25 40-7.5-40-7.5 25-25 90 32.5-90 32.5zm-87.6-276.5h-35.4l23-33.6-33.6 23v-35.4l86.6-40.7-40.6 86.7z" class="st2"/></g></svg>