<?xml version="1.0" encoding="utf-8"?>
<!-- Generator: Adobe Illustrator 24.1.2, SVG Export Plug-In . SVG Version: 6.00 Build 0)  -->
<svg version="1.1" id="Layer_1" xmlns="http://www.w3.org/2000/svg" xmlns:xlink="http://www.w3.org/1999/xlink" x="0px" y="0px"
	 viewBox="0 0 40.8 40.8" style="enable-background:new 0 0 40.8 40.8;" xml:space="preserve">
<style type="text/css">
	.st0{enable-background:new    ;}
	.st1{fill:#4671D3;}
</style>
<desc>Greek letter theta</desc>
<g class="st0">
	<path class="st1" d="M0.4,20.6c0-5.3,1.8-9.6,5.3-12.9c3.6-3.3,8.5-5,14.7-5c6,0,10.9,1.6,14.5,4.9c3.6,3.3,5.4,7.6,5.4,13
		c0,5.3-1.8,9.5-5.4,12.7c-3.6,3.2-8.4,4.8-14.6,4.8c-6.2,0-11.1-1.6-14.7-4.9C2.2,29.9,0.4,25.7,0.4,20.6z M7.5,20.5
		c0,6.1,1.6,10.4,4.7,12.9c2.1,1.8,4.9,2.7,8.2,2.7c1.2,0,2.3-0.1,3.4-0.3c1.1-0.2,2.2-0.7,3.4-1.3c1.2-0.7,2.2-1.5,3.1-2.6
		c0.9-1.1,1.6-2.6,2.2-4.5c0.6-1.9,0.9-4.1,0.9-6.6c0-6.3-1.5-10.7-4.6-13.3c-2.2-1.9-4.9-2.8-8.3-2.8c-1.2,0-2.3,0.1-3.4,0.3
		C16,5,14.9,5.5,13.7,6.2S11.4,7.8,10.6,9c-0.9,1.1-1.6,2.7-2.2,4.7C7.8,15.6,7.5,17.9,7.5,20.5z M10.9,25v-9.4h2.3v1.7h14.3v-1.7
		h2.4V25h-2.4v-1.7H13.3V25H10.9z"/>
</g>
</svg>
